<?xml version="1.0" encoding="utf-8"?>
<!-- Generator: Adobe Illustrator 24.1.2, SVG Export Plug-In . SVG Version: 6.00 Build 0)  -->
<svg version="1.1" id="Warstwa_3" xmlns="http://www.w3.org/2000/svg" xmlns:xlink="http://www.w3.org/1999/xlink" x="0px" y="0px"
	 viewBox="0 0 430 430" style="enable-background:new 0 0 430 430;" xml:space="preserve">
<style type="text/css">
	.st0{fill:#121331;}
	.st1{fill:#30c9e8;}
	.st2{fill:none;stroke:#121331;stroke-width:12;stroke-linecap:round;stroke-linejoin:round;stroke-miterlimit:10;}
	.st3{fill:none;stroke:#30c9e8;stroke-width:12;stroke-linecap:round;stroke-linejoin:round;stroke-miterlimit:10;}
	.st4{fill:#30c9e8;}
</style>
<g>
	<g>
		<path class="st0" d="M101.91,304.15c-0.02,0-0.04,0-0.07,0c-3.31-0.04-5.97-2.75-5.94-6.06c0.22-20.38,17.24-36.97,32.26-51.6
			c10.94-10.66,22.25-21.69,21.15-29.6c-1.57-11.28-13.23-18.31-25.58-25.76c-1.53-0.92-3.06-1.84-4.57-2.77
			c-2.82-1.74-3.7-5.44-1.96-8.26c1.74-2.82,5.43-3.7,8.26-1.96c1.48,0.91,2.97,1.81,4.47,2.72c13.55,8.17,28.91,17.44,31.27,34.38
			c1.94,13.93-10.98,26.52-24.66,39.85c-13.35,13.01-28.47,27.75-28.64,43.14C107.87,301.51,105.19,304.15,101.91,304.15z"/>
		<path class="st0" d="M207.6,369.82c-32.57,0-62.87-10.42-87.33-30.4c-3.44-2.81-6.57-5.69-9.3-8.55c-2.29-2.4-2.2-6.2,0.2-8.48
			c2.4-2.29,6.2-2.2,8.48,0.2c2.39,2.51,5.16,5.04,8.22,7.55c28.55,23.32,66,32.34,105.46,25.4c39.79-7,76.81-29.35,104.25-62.94
			c56.42-69.06,54.16-164.61-5.04-212.98c-52.93-43.24-136.19-34.54-193.67,20.23c-2.4,2.29-6.2,2.19-8.48-0.2
			c-2.29-2.4-2.19-6.2,0.21-8.48c29.77-28.36,67.19-46.23,105.37-50.3c38.84-4.14,75.84,6.32,104.18,29.47
			c64.33,52.56,67.35,155.67,6.74,229.86c-29.25,35.81-68.84,59.67-111.46,67.17C226.02,369,216.72,369.82,207.6,369.82z"/>
		<path class="st1" d="M300.72,250.22c-8.23,0-16.52-2.73-23.38-8.33l0,0c-15.8-12.91-18.15-36.26-5.24-52.06
			c12.91-15.8,36.26-18.15,52.06-5.24c15.8,12.91,18.15,36.26,5.24,52.06C322.1,245.58,311.45,250.22,300.72,250.22z M284.93,232.59
			c10.67,8.72,26.46,7.13,35.18-3.54c8.72-10.67,7.13-26.45-3.54-35.18c-10.67-8.72-26.46-7.13-35.18,3.54
			C272.67,208.09,274.26,223.87,284.93,232.59L284.93,232.59z"/>
		<path class="st1" d="M211.91,330.47c-9.65,0-18.92-3.29-26.49-9.48c-8.69-7.1-14.09-17.15-15.22-28.32
			c-1.13-11.16,2.17-22.09,9.26-30.78c14.65-17.94,41.16-20.6,59.1-5.95c8.69,7.1,14.09,17.15,15.22,28.32
			c1.12,11.16-2.17,22.09-9.26,30.78c-7.1,8.69-17.15,14.09-28.32,15.22C214.76,330.4,213.33,330.47,211.91,330.47z M212.01,258.48
			c-8.7,0-17.34,3.76-23.26,11.01c-5.07,6.21-7.42,14.01-6.62,21.99c0.8,7.97,4.66,15.16,10.87,20.23
			c6.21,5.07,14.01,7.42,21.99,6.62c7.97-0.8,15.16-4.66,20.22-10.87c5.07-6.21,7.42-14.01,6.62-21.99
			c-0.8-7.97-4.66-15.16-10.87-20.23C225.41,260.69,218.69,258.48,212.01,258.48z"/>
		<path class="st1" d="M280.9,150.42c-7.12,0-14.28-2.36-20.21-7.21c-13.66-11.16-15.7-31.36-4.54-45.03
			c11.16-13.66,31.36-15.7,45.03-4.54c13.66,11.16,15.7,31.36,4.54,45.03C299.39,146.42,290.18,150.42,280.9,150.42z M280.95,98.45
			c-5.8,0-11.56,2.5-15.51,7.34c-6.98,8.54-5.71,21.16,2.83,28.14l0,0c8.54,6.98,21.16,5.71,28.14-2.83
			c6.98-8.54,5.71-21.16-2.83-28.14C289.87,99.92,285.4,98.45,280.95,98.45z"/>
		<path class="st1" d="M183.04,165.83c-6.2,0-12.17-2.12-17.03-6.09c-5.58-4.56-9.06-11.03-9.78-18.2
			c-0.72-7.18,1.39-14.2,5.96-19.79c9.42-11.53,26.46-13.25,37.99-3.83c5.58,4.56,9.06,11.03,9.78,18.2
			c0.72,7.18-1.39,14.2-5.96,19.79c-4.56,5.58-11.03,9.06-18.2,9.78C184.88,165.79,183.96,165.83,183.04,165.83z M183.11,123.84
			c-4.35,0-8.67,1.88-11.63,5.5c-2.54,3.1-3.71,7.01-3.31,10.99c0.4,3.99,2.33,7.58,5.43,10.11l0,0c3.1,2.54,7,3.71,10.99,3.31
			c3.99-0.4,7.58-2.33,10.11-5.43c2.54-3.1,3.71-7.01,3.31-10.99c-0.4-3.99-2.33-7.58-5.43-10.11
			C189.8,124.94,186.44,123.84,183.11,123.84z"/>
	</g>
	<g>
		<path class="st0" d="M96.25,300.41c-0.62,0-1.25-0.1-1.88-0.3c-3.15-1.04-4.86-4.43-3.82-7.58c4-12.14,8.15-27.18,12.34-44.7
			c5.41-22.61,10.65-48.59,15.17-75.14c6.46-38.06,11.01-74.88,12.81-103.66c1.65-26.47,0.56-38.81-0.51-44.38
			c-2.85,4.9-7.95,16.19-15.13,41.72c-7.8,27.76-15.66,64.01-22.13,102.08c-8.22,48.36-13.32,94.98-13.64,124.7
			c-0.04,3.29-2.72,5.93-6,5.93c-0.02,0-0.04,0-0.07,0c-3.31-0.04-5.97-2.75-5.93-6.07c0.34-30.77,5.37-76.9,13.81-126.58
			c7.08-41.66,15.66-80.54,24.18-109.47c4.2-14.26,8.17-25.4,11.82-33.13c3.67-7.78,8.41-15.56,15.66-14.33
			c7.25,1.24,9.15,10.15,10.06,18.7c0.9,8.49,0.97,20.33,0.23,35.17c-1.51,30.12-6.24,69.65-13.32,111.32
			c-4.56,26.81-9.86,53.06-15.33,75.92c-4.27,17.84-8.51,33.2-12.62,45.66C101.12,298.81,98.78,300.41,96.25,300.41z"/>
		<path class="st1" d="M84.08,420.6c-0.37,0-0.74-0.03-1.1-0.1c-14.18-2.65-26.61-15.89-35-37.3c-7.21-18.38-10.11-40.12-7.58-56.75
			c2.11-13.89,9.65-26.2,20.68-33.77c9.28-6.37,19.89-8.67,29.88-6.47c21.94,4.83,34.98,30.57,29.07,57.38l0,0
			c-2.4,10.88-7.51,19.2-12.92,28.01c-7.13,11.61-14.5,23.61-17.08,43.77c-0.21,1.64-1.08,3.12-2.42,4.09
			C86.57,420.21,85.34,420.6,84.08,420.6z M83.48,297.39c-5.26,0-10.66,1.77-15.62,5.17c-8.3,5.7-13.99,15.06-15.61,25.69
			c-2.23,14.66,0.41,34.04,6.89,50.57c5.37,13.7,12.51,23.41,20.16,27.7c3.61-18.45,10.98-30.46,17.58-41.2
			c5.08-8.27,9.46-15.41,11.43-24.31l0,0c4.48-20.35-4.46-39.67-19.93-43.08C86.77,297.57,85.13,297.39,83.48,297.39z
			 M114.17,342.29L114.17,342.29L114.17,342.29z"/>
		<path class="st0" d="M108.74,255.23c-0.36,0-0.73-0.03-1.1-0.1l-31.85-5.91c-3.26-0.6-5.41-3.74-4.8-6.99s3.74-5.41,6.99-4.81
			l31.85,5.91c3.26,0.6,5.41,3.74,4.8,6.99C114.1,253.21,111.58,255.23,108.74,255.23z"/>
	</g>
</g>
</svg>
